<svg version="1.1" xmlns="http://www.w3.org/2000/svg" xmlns:xlink="http://www.w3.org/1999/xlink" width="10.5566" height="23.28059" viewBox="0,0,10.5566,23.28059"><g transform="translate(-234.7217,-168.35967)"><g data-paper-data="{&quot;isPaintingLayer&quot;:true}" fill-rule="nonzero" stroke="none" stroke-linecap="butt" stroke-linejoin="miter" stroke-miterlimit="10" stroke-dasharray="" stroke-dashoffset="0" style="mix-blend-mode: normal"><path d="M234.83509,191.50434v-23.00868h10.32982v23.00868z" fill="#80ffff" stroke-width="0"/><path d="M243.03211,188.5636c0.0555,0.05317 0.12615,0.15221 0.09901,0.29712c0.27551,0.08186 0.57221,0.18277 0.807,0.32807c0.06161,0.03812 0.09402,0.14204 0.16376,0.15027c0.06446,0.0076 0.10597,-0.0902 0.16812,-0.11113c0.21318,-0.07181 0.3602,-0.07585 0.54447,-0.07434c0.04142,-0.03548 0.09842,-0.0599 0.17689,-0.0599c0.28694,0 0.28694,0.32655 0.28694,0.32655l-0.28694,0.38763c-0.24963,-0.00093 -0.32726,-0.01992 -0.56673,0.049c-0.12497,0.03596 -0.2403,0.14756 -0.36859,0.13319c-0.13885,-0.01554 -0.2465,-0.14911 -0.37294,-0.21621c-0.27995,-0.14856 -0.60885,-0.25708 -0.90773,-0.3421c-0.6352,-0.18069 -1.2961,-0.3081 -1.94869,-0.41867c0.00803,0.11494 0.00462,0.23537 -0.00401,0.373c-0.01692,0.26986 -0.13966,0.66937 -0.02395,0.93937c0.05354,0.12492 0.14896,0.2203 0.22344,0.33045l0.01618,0.47457c0,0 0,0.03902 -0.01185,0.09007c0.00771,0.02953 0.01185,0.0608 0.01185,0.09317c0,0.18035 -0.12846,0.32655 -0.28694,0.32655c-0.15848,0 -0.28694,-0.14621 -0.28694,-0.32655c0,-0.03238 0.00414,-0.06365 0.01185,-0.09317c-0.01185,-0.05106 -0.01185,-0.09007 -0.01185,-0.09007l0.01618,-0.25839c-0.26736,-0.36399 -0.3161,-0.6963 -0.28355,-1.17339c0.02174,-0.31872 0.13264,-0.61092 -0.01977,-0.91645c-0.15733,-0.3154 -0.42777,-0.48095 -0.67101,-0.68844c-0.49053,-0.41843 -0.95178,-0.84735 -1.38864,-1.33251c-0.14651,0.18712 -0.31532,0.33067 -0.49812,0.36513c-0.17265,0.03255 -0.35883,-0.0227 -0.51596,-0.11037c-0.14888,-0.08306 -0.21723,-0.33161 -0.38048,-0.36463c-0.25171,-0.05091 -0.54073,0.1651 -0.76248,0.26504c-0.24282,0.05512 -0.47577,0.06725 -0.71302,0.10352c-0.01973,0.01348 -0.041,0.02433 -0.06344,0.03214c-0.04852,0.04276 -0.10941,0.06821 -0.17553,0.06821c-0.15848,0 -0.28694,-0.14621 -0.28694,-0.32655c0,-0.09648 0.03677,-0.1832 0.09523,-0.24298c0.00465,-0.0327 0.01358,-0.06378 0.0261,-0.09246l-0.00567,-0.01763c0,0 0.01096,-0.01247 0.03032,-0.02871c0.05214,-0.08186 0.13684,-0.13511 0.23248,-0.13511c0.07479,0 0.1429,0.03256 0.19396,0.08591c0.16702,-0.0185 0.33301,-0.03353 0.50298,-0.07237c0.33785,-0.15561 0.65185,-0.37177 1.03453,-0.28033c0.14821,0.03542 0.29509,0.09998 0.41978,0.19781c0.09483,0.0744 0.13709,0.33767 0.24119,0.28158c0.40289,-0.21714 0.53695,-0.83883 0.70022,-1.24688c0.10158,-0.25389 0.2625,-0.47483 0.35353,-0.73385c0.20184,-0.57432 0.35619,-1.1692 0.48171,-1.77487c-0.35549,-0.32345 -0.5003,-0.71632 -0.68005,-1.32991c-0.36991,-1.26267 -0.42013,-2.53001 -0.59735,-3.82565c-0.14413,-1.05375 -0.51286,-2.12175 -0.79085,-3.1461c-0.03319,0.02312 -0.06783,0.04262 -0.10524,0.05531c-0.12083,0.04101 -0.25679,-0.03847 -0.37827,0c-0.09508,0.03011 -0.1526,0.14562 -0.24078,0.19606c-0.34618,0.19796 -0.69286,0.24468 -1.07174,0.24845c0,0 -0.02459,0 -0.05937,-0.00819c-0.02063,0.00536 -0.0421,0.00819 -0.06415,0.00819c-0.15848,0 -0.28694,-0.14621 -0.28694,-0.32655c0,-0.18035 0.12846,-0.32655 0.28694,-0.32655c0.02205,0 0.04353,0.00283 0.06415,0.00819c0.03479,-0.00819 0.05937,-0.00819 0.05937,-0.00819c0.29151,0.0037 0.55267,-0.03088 0.81961,-0.18204c0.11524,-0.06526 0.20307,-0.19335 0.32662,-0.23444c0.12103,-0.04026 0.25656,0.03749 0.37827,0c0.08877,-0.02734 0.14346,-0.13227 0.22283,-0.18515c0.36361,-0.2422 0.86957,-0.46068 1.1705,-0.80945c0.07963,-0.09229 0.10815,-0.23211 0.18914,-0.32287c0.12921,-0.1448 0.44056,-0.31344 0.58839,-0.45212c0.44241,-0.41503 0.6971,-0.93906 0.8835,-1.53349c0.09456,-0.10762 0.20945,-0.19628 0.2837,-0.32287c0.06039,-0.10297 0.04134,-0.25396 0.11062,-0.34941c0.14476,-0.19945 0.42364,-0.23011 0.56741,-0.43049c0.10651,-0.14846 0.0917,-0.36897 0.14495,-0.55079l-0.01473,-0.21961c0,0 0,-0.32655 0.28694,-0.32655c0.28694,0 0.28694,0.32655 0.28694,0.32655l-0.01473,0.42613c-0.0304,0.10377 -0.19785,0.68968 -0.23332,0.74069c-0.14106,0.20286 -0.42962,0.22474 -0.56741,0.43049c-0.05495,0.08206 -0.02828,0.21045 -0.07852,0.29633c-0.07411,0.1267 -0.18914,0.21525 -0.2837,0.32287c-0.1057,0.40482 -0.28598,0.78418 -0.51816,1.12043c0.21534,0.12001 0.50793,0.28646 0.65564,0.41617c0.08346,0.07328 0.13327,0.1909 0.22097,0.25745c0.46133,0.35005 1.13891,0.59175 1.41499,1.21392c0.06724,0.15154 0.05815,0.33301 0.087,0.49957c0.05779,0.33361 0.06854,0.66469 0.03515,0.98244c0.17878,-0.02413 0.36003,-0.06239 0.46648,-0.16021c0.08417,-0.07734 0.10813,-0.22712 0.20125,-0.28976c0.2971,-0.19983 0.68415,-0.10859 0.99723,-0.18073c0.10538,-0.02428 0.19389,-0.11335 0.2995,-0.13634c0.02649,-0.00576 0.35658,-0.00617 0.53928,-0.00603c0.04565,-0.03864 0.14026,-0.10026 0.24844,-0.06399c0.01474,-0.00266 0.02985,-0.00403 0.04525,-0.00403c0.15848,0 0.28694,0.14621 0.28694,0.32655c0,0.18035 -0.12846,0.32655 -0.28694,0.32655c-0.02029,0 -0.04009,-0.0024 -0.05918,-0.00695l-0.12052,0.07512c-0.18159,0 -0.36704,-0.04845 -0.54474,-0.00589c-0.10522,0.0252 -0.19402,0.11261 -0.2995,0.13634c-0.19364,0.04357 -0.6225,-0.0455 -0.79978,0.09194c-0.07568,0.05867 -0.08343,0.19538 -0.15815,0.25561c-0.27053,0.21804 -0.63279,0.24879 -0.95716,0.30924c-0.23063,0.70303 -0.70381,1.28386 -1.37943,1.59283c-0.07963,0.00105 -0.4268,-0.01392 -0.53615,0.04562c-0.19665,0.10708 -0.36629,0.28207 -0.57446,0.35575c-0.30008,0.10622 -0.57808,0.19646 -0.8737,0.33103l-0.02347,0.06405c0,0 -0.06794,0.07731 -0.1645,0.09773c0.06291,0.68365 0.12473,1.36827 0.29688,2.03371c0.16354,0.63214 0.25105,1.29439 0.69255,1.68364c0.08622,0.0236 0.13894,0.07123 0.17074,0.12527c0.01072,0.00649 0.02161,0.01285 0.03267,0.01909c0.79667,0.17239 1.67842,0.21776 2.47333,-0.00805c0.36951,-0.10496 0.79827,-0.44708 1.19728,-0.25745c0.30388,0.14441 0.31991,0.38812 0.51239,0.61615c0.15756,0.18666 0.32236,0.23727 0.52201,0.24483c0.04905,-0.04143 0.15404,-0.10887 0.27165,-0.05438c0.02588,-0.00873 0.05328,-0.01341 0.08164,-0.01341c0.03139,0 0.06158,0.00573 0.08985,0.01633c0.02826,-0.01059 0.05847,-0.01633 0.08985,-0.01633c0.15848,0 0.28694,0.14621 0.28694,0.32655c0,0.18035 -0.12846,0.32655 -0.28694,0.32655c-0.03139,0 -0.06158,-0.00573 -0.08985,-0.01633c-0.02826,0.01059 -0.05847,0.01633 -0.08985,0.01633c-0.03462,0 -0.06781,-0.00698 -0.09854,-0.01977l-0.14107,0.08794c-0.41364,-0.00689 -0.73197,-0.09422 -1.0415,-0.43649c-0.12657,-0.13996 -0.16979,-0.38158 -0.32621,-0.47457c-0.14052,-0.08354 -0.30816,0.08673 -0.45836,0.14444c-0.24672,0.0948 -0.50159,0.16305 -0.75781,0.21592c-0.23517,0.04852 -0.47441,0.07754 -0.71512,0.08953c-0.00026,0.01465 -0.00136,0.02906 -0.00326,0.04317c0.02972,0.04848 0.04226,0.09127 0.04226,0.09127c0.19584,0.70469 0.80592,1.42775 1.3407,1.8508c0.46736,0.36972 0.84,0.67793 0.976,1.36298c0.08277,0.41692 -0.03112,0.92095 -0.18033,1.29888c-0.11798,0.2988 -0.25343,0.45477 -0.28887,0.71981zM242.46068,188.29473c0.1302,-0.54951 0.61344,-0.97391 0.47849,-1.6185c-0.13764,-0.65743 -0.63722,-0.82418 -1.03737,-1.22718c-0.52305,-0.52677 -1.03247,-1.15793 -1.26161,-1.91139c0,0 -0.02048,-0.0699 -0.0128,-0.15436c-0.03426,-0.05304 -0.05478,-0.1183 -0.05558,-0.18897c-0.34409,-0.01918 -0.68692,-0.069 -1.02087,-0.14231c-0.12494,0.57644 -0.27702,1.14518 -0.46933,1.69227c-0.13096,0.37256 -0.34614,0.71584 -0.48042,1.09425c-0.03822,0.10769 -0.09064,0.23808 -0.15511,0.37413c0.44035,0.4991 0.90587,0.93278 1.40357,1.35784c0.26793,0.22883 0.55232,0.42981 0.74766,0.74445c0.61459,0.10052 1.24136,0.21114 1.85261,0.36064c-0.00344,-0.12812 -0.01833,-0.25815 0.01075,-0.38088zM238.40792,177.77902c0.31101,-0.14158 0.60423,-0.24661 0.92331,-0.35067c0.18568,-0.06056 0.3258,-0.24045 0.50374,-0.32595c0.25061,-0.1204 0.41219,-0.09465 0.66186,-0.09072c0.88912,-0.40095 1.16866,-1.50191 1.02993,-2.48361c-0.01491,-0.10553 0.00864,-0.22255 -0.0328,-0.31847c-0.21156,-0.48976 -0.85994,-0.69388 -1.22063,-0.96753c-0.10027,-0.07607 -0.16342,-0.20326 -0.25823,-0.28791c-0.12538,-0.11194 -0.59753,-0.36849 -0.71395,-0.43326c-0.02574,0.02614 -0.05182,0.05184 -0.07821,0.07708c-0.16686,0.15962 -0.3937,0.23185 -0.54642,0.40886c-0.07963,0.09229 -0.10815,0.23211 -0.18914,0.32287c-0.27458,0.30772 -0.66562,0.5363 -1.02324,0.7503c0.00507,0.014 0.00735,0.02266 0.00735,0.02266c0.2911,1.10432 0.6908,2.25197 0.84838,3.39265c0.0151,0.10936 0.02869,0.219 0.04121,0.32887z" fill="#000000" stroke-width="0.5"/></g></g></svg>