<svg version="1.1" xmlns="http://www.w3.org/2000/svg" xmlns:xlink="http://www.w3.org/1999/xlink" width="111.36668" height="111.36668" viewBox="0,0,111.36668,111.36668"><g transform="translate(-184.31666,-124.31666)"><g data-paper-data="{&quot;isPaintingLayer&quot;:true}" fill-rule="nonzero" stroke-linecap="butt" stroke-linejoin="miter" stroke-miterlimit="10" stroke-dasharray="" stroke-dashoffset="0" style="mix-blend-mode: normal"><path d="M184.31666,180l55.68334,-55.68334l55.68334,55.68334l-55.68334,55.68334z" fill="#000000" stroke="none" stroke-width="NaN"/><path d="M219.01713,159.01713c11.58852,-11.58852 30.37723,-11.58852 41.96575,0c11.58852,11.58852 11.58851,30.37722 -0.00001,41.96574c-11.58852,11.58852 -30.37723,11.58852 -41.96574,0.00001c-11.58852,-11.58852 -11.58852,-30.37723 0,-41.96575z" fill="none" stroke="#00ffff" stroke-width="3"/><path d="M259.0502,176.94928c-0.70188,1.63772 -2.86194,4.81316 -1.88894,6.68278c1.5186,2.91797 3.95519,1.7691 4.33593,6.05936c0.51748,5.83108 -5.14129,7.679 -9.49208,8.98818c0.09588,1.57629 0.30884,3.19706 0.61576,4.69155l0.63894,-0.35825c0,0 1.76694,1.12441 0.64253,2.89135c-1.12441,1.76694 -2.89135,0.64252 -2.89135,0.64252l-2.49749,-2.35415c-0.44156,-2.25788 -0.77574,-4.80694 -0.7535,-7.1113c0.00604,-0.62589 0.43942,-1.23215 0.33029,-1.84849c-0.09012,-0.50895 -0.3925,-0.99734 -0.80926,-1.46054c-0.29013,0.30131 -0.58111,0.45535 -0.58111,0.45535c-3.42178,1.7959 -6.61092,2.75499 -10.51935,2.52038c-1.32511,-0.07954 -2.63331,-0.89733 -3.9329,-0.62654c-1.51055,0.31475 -2.09243,2.64835 -3.61648,2.88943c-0.32219,0.05096 -0.72108,0.02423 -1.1287,-0.06404c0.44147,0.6756 0.86195,1.36877 0.9196,2.14925c0.05547,0.75088 -0.32808,1.44426 -0.6728,2.14271c0.04576,0.47912 -0.09145,1.0377 -0.65003,1.59628c-1.48094,1.48094 -2.96188,0 -2.96188,0l-0.58665,-2.44851c1.94627,-2.96773 -5.72313,-5.19141 -0.26672,-8.97007c1.00778,-0.69791 2.42199,0.03483 3.64183,0.47446c-2.58796,-3.44878 -5.27826,-6.65756 -8.3485,-9.7278l-0.5953,-1.04198c-1.17873,0.50084 -2.51273,0.77336 -4.19662,0.80002l-1.75783,-0.15117c0,0 -2.08576,-0.18961 -1.89614,-2.27538c0.18962,-2.08577 2.27538,-1.89615 2.27538,-1.89615l1.3786,0.13396c3.03698,0.06984 4.12642,-1.28337 6.21757,-3.3784c0,0 0.02444,-0.02444 0.07017,-0.06389c0.04344,-0.04197 0.06998,-0.06411 0.06998,-0.06411l1.71078,-1.42565c1.75301,-1.45785 3.23873,-3.09597 4.91244,-4.63691c1.4856,-1.36776 3.39439,-2.63682 4.47963,-4.40037c2.1305,-3.46214 2.14304,-8.37865 2.40471,-12.30349c0,0 0.13931,-2.08972 2.22904,-1.95041c2.08972,0.13931 1.95041,2.22904 1.95041,2.22904c-0.11487,1.72293 -0.21215,3.55664 -0.41696,5.39076l0.31989,-0.06386c2.32563,0.16045 4.98891,-0.42608 7.17966,0.62798c0.62044,0.29852 1.1556,0.62256 1.61514,0.96913c1.96284,-1.99093 3.71798,-4.09608 5.31119,-6.40213l3.48804,-0.00367c0,0 1.48094,1.48094 0,2.96188c-0.28817,0.28817 -0.57635,0.4642 -0.8536,0.5608c-1.603,2.18507 -3.34902,4.20878 -5.27669,6.13976c0,0 -0.12555,0.12554 -0.34008,0.26697c0.62221,2.77782 -0.54722,6.07655 -1.27015,9.20222c2.41337,-0.98111 4.848,-1.84048 7.45188,-1.92246c2.24548,-0.0707 5.36103,0.40106 7.53596,1.04701c0.44601,0.13246 0.8089,0.69874 1.2625,0.59524c0.3954,-0.09022 0.43089,-0.68719 0.64634,-1.03079l1.17459,-0.83193c0,0 1.74262,-1.16174 2.90436,0.58087c1.16174,1.74262 -0.58087,2.90436 -0.58087,2.90436l-0.53619,0.30858c-0.83003,0.70189 -1.44054,1.82279 -2.4901,2.10565c-1.07638,0.29009 -2.20216,-0.34931 -3.29957,-0.54529c-0.72773,-0.12996 -1.48894,-0.29535 -2.26172,-0.45174zM257.31524,189.92961c0.00939,-1.48074 -1.12713,-1.26934 -2.0312,-2.13773c-1.74439,-1.67556 -2.55353,-2.92461 -2.53367,-5.44456c0.01773,-2.24881 1.3726,-4.63562 2.29286,-6.6904c-4.79328,0.20967 -9.14265,3.30439 -13.87025,4.46413c1.37262,2.65809 2.74955,5.38764 4.9768,7.44436c2.23475,2.06366 5.17423,3.48674 6.02554,6.7502c2.40137,-0.6296 5.12179,-1.52725 5.13992,-4.386zM221.53921,181.20132c3.44523,3.44523 6.4417,7.06248 9.33055,10.97295c0.1241,-0.04715 0.25064,-0.08778 0.3798,-0.12084c0.68775,-0.17603 4.21673,0.45021 5.19126,0.51398c2.75074,0.17999 4.97798,-0.41044 7.32606,-1.54536c-0.1804,-0.13734 -0.34047,-0.26816 -0.47262,-0.39208c-2.8954,-2.71505 -4.58855,-6.23422 -6.41094,-9.67651c0,0 -0.0955,-0.18038 -0.17056,-0.45833c-3.77561,-0.32977 -7.66692,-2.1246 -11.04323,-3.41448c-0.38924,0.31997 -0.76871,0.63269 -1.13404,0.93771l-1.63894,1.36578c-0.51408,0.51208 -1.00088,0.98387 -1.47774,1.41378zM243.699,171.29775c0.69384,-2.56605 2.85272,-6.16396 -0.59337,-7.82567c-1.42872,-0.68894 -4.11601,-0.12819 -5.65118,-0.2274l0.37392,0.03972c0,0 -0.53755,0.17919 -1.14664,0.07155c-0.41366,1.63396 -1.00219,3.19499 -1.86434,4.59597c-1.32116,2.14687 -3.3772,4.19904 -5.52625,6.08875c2.98484,1.2457 6.42794,2.64431 9.37812,2.28059c1.48431,-0.18299 2.91638,-0.58826 4.32446,-1.09069c0.13305,-1.32679 0.35785,-2.64788 0.70529,-3.93283z" fill="#667eff" stroke="none" stroke-width="0.5"/><path d="M192.09108,175.10465c0.26492,-0.79476 1.05967,-0.52984 1.05967,-0.52984l0.3389,0.15829c1.95346,0.00708 3.60369,-0.80164 5.40729,-1.44087c-0.39692,-0.52539 -0.61739,-1.13664 -0.3229,-1.91366c0.16764,-0.44233 0.78867,-0.52253 1.183,-0.78379c0,0 0.7493,-0.37465 1.12396,0.37465c0.37465,0.7493 -0.37465,1.12396 -0.37465,1.12396c-0.80185,0.04 2.28981,2.34356 2.06247,3.41037c-0.29407,1.38 -2.01675,1.62597 -2.92793,2.33759c-0.42429,0.33136 -0.81134,0.72387 -1.17793,1.14346c1.45534,0.68441 3.34776,1.50318 1.17088,3.29002c-1.04929,0.86128 -2.49458,0.45872 -3.82964,-0.1389c-1.13701,1.04055 -2.4809,1.52505 -4.51712,0.46806c-0.21597,-0.46583 -0.64792,-0.88401 -0.64792,-1.39747c0,-2.98465 2.61409,-1.95068 4.94271,-1.02584c0.15286,-0.16915 0.3034,-0.34716 0.45173,-0.53027c-0.06654,-0.0325 -0.10808,-0.05524 -0.11721,-0.06555c-1.06818,-1.20461 -0.6452,-1.40399 -0.15693,-2.57722l1.15185,-0.4631c0,0 0.83775,0 0.83774,0.83774c0,0.00877 -0.00009,0.01743 -0.00027,0.02602c0.29525,-0.36132 0.58181,-0.67119 0.86098,-0.8876c0.22641,-0.17551 2.13294,-0.92854 2.3052,-1.28535c0.1493,-0.30925 -0.52734,-0.44121 -0.77182,-0.68235c-0.00272,-0.00269 -0.00546,-0.00538 -0.00819,-0.00807c-0.16063,0.14994 -0.34216,0.21045 -0.34216,0.21045c-2.14633,0.7113 -3.99728,1.6459 -6.30315,1.65318l-0.86874,-0.24427c0,0 -0.79476,-0.26492 -0.52984,-1.05967zM197.42027,180.27479c-0.1206,0.15487 -0.24071,0.30892 -0.36108,0.46068c0.63666,0.20805 1.18444,0.31802 1.55763,0.20785c0.1424,-0.04203 -0.50165,-0.35367 -1.19656,-0.66853zM194.18195,181.34108c-0.2756,-0.13644 -0.53225,-0.25757 -0.7629,-0.34853c-0.3246,-0.12802 -1.41795,-0.21039 -0.94722,0.42669c0.60042,0.26612 1.16917,0.19766 1.71011,-0.07816z" fill="#ffcb00" stroke="none" stroke-width="0.5"/><path d="M238.14916,143.15063c0.50117,-0.43745 0.99711,-0.92315 0.99711,-1.19259c0,-0.32757 -1.46012,-1.51566 -1.5661,-1.62164c-0.66907,-0.66907 -1.25929,-1.41318 -1.8335,-2.16076c-0.32233,-0.07109 -0.64983,-0.10272 -1.00458,-0.03158c-1.71114,0.34319 -1.34806,1.48795 -0.75481,2.40835l0.59931,-0.22095c0,0 0.82148,-0.1643 0.98577,0.65718c0.1643,0.82148 -0.65718,0.98577 -0.65718,0.98577l-1.41343,0.1816c-0.23132,-0.19731 -1.63231,-1.31926 -1.73885,-1.68886c-0.48449,-1.68058 0.88291,-3.61198 2.59425,-3.95377c0.02755,-0.0055 0.05477,-0.01062 0.08166,-0.01536c-0.34639,-0.42052 -0.70386,-0.82327 -1.08539,-1.1935c0,0 -0.59238,-0.59238 0,-1.18475c0.59238,-0.59238 1.18475,0 1.18475,0c0.83914,0.85772 1.60217,1.79996 2.3704,2.75286c0.2325,0.03937 0.48592,0.05482 0.77889,0.02496c0.14957,-0.01525 0.30242,-0.03547 0.45807,-0.06026c-0.10204,-0.06314 -0.1628,-0.12389 -0.1628,-0.12389l-0.40255,-0.40255c-0.95666,-0.95666 -3.17066,-3.56992 -0.34691,-4.23714c0.64957,-0.15349 3.23237,2.82493 3.76043,0.98671c0.11599,-0.40377 -0.49647,-0.68274 -0.79695,-0.97633c-1.01946,-0.9961 -1.35249,-1.66382 -1.63803,-3.04465c0,0 -0.1643,-0.82148 0.65718,-0.98577c0.82148,-0.1643 0.98577,0.65718 0.98577,0.65718c0.349,1.8216 2.86391,2.90454 2.39561,4.8351c-0.2705,1.11513 -2.48027,2.00523 -3.45985,1.76668c-0.14475,-0.03525 -1.08612,-0.90111 -1.48258,-1.27111c0.10901,0.10312 0.27349,0.25915 0.50625,0.48077c0.20615,0.19628 0.40255,0.40255 0.60382,0.60382l0.40255,0.40255c0,0 0.51642,0.51642 0.10274,1.06707c2.16509,-0.57018 4.62665,-1.75206 6.37738,-2.63292c0,0 0.7493,-0.37465 1.12396,0.37465c0.37465,0.7493 -0.37465,1.12396 -0.37465,1.12396c-2.25503,1.12133 -5.54428,2.7112 -8.1363,3.05877c0.4184,0.49107 0.85101,0.97341 1.30942,1.43651c0.53571,0.54118 1.25174,1.12006 1.25174,2.00129c0,1.25677 -1.66247,2.41203 -2.45938,3.20894l-0.92835,-1.14384l-0.2564,-0.04092c0.03158,-0.03158 0.0751,-0.07113 0.128,-0.11729l-0.1291,-0.15908c0,0 0.24546,-0.73637 0.97264,-0.55523z" fill="#ffcb00" stroke="none" stroke-width="0.5"/><path d="M290.73779,182.61544c0,0.83775 -0.83774,0.83774 -0.83774,0.83774l-0.23825,-0.01627c-0.55931,0.10716 -1.09545,0.49589 -1.60852,0.81745c-0.13116,0.30541 -0.28483,0.65221 -0.49273,1.06493l-0.12586,0.06392l0.03862,0.03862l-0.60382,0.60382c-0.32716,0.32716 -0.85759,0.32716 -1.18475,0c-0.20888,-0.20888 -0.2844,-0.50062 -0.22655,-0.76941l0.19872,-0.99363l0.33302,0.06661c0.11791,-0.49056 0.31894,-0.89649 0.613,-1.23448c0.0265,-0.10393 0.05293,-0.20649 0.08039,-0.30628c-1.77011,-0.01634 -3.63233,-0.60592 -3.22075,-2.83108c0.09753,-0.52727 0.9328,-0.74302 0.97783,-1.27735c0.031,-0.36772 -0.38508,-1.05654 -0.5228,-1.32562c-0.0764,-0.24638 -0.23363,-0.4936 -0.34762,-0.74037c-0.06433,-0.05687 -0.13022,-0.11116 -0.19801,-0.16232c-1.94381,-1.46675 -4.75813,-1.34568 -4.35713,-4.46685c0,0 0.1643,-0.82148 0.98577,-0.65718c0.82148,0.1643 0.65718,0.98577 0.65718,0.98577c-0.34525,0.93645 1.76448,1.96543 3.29478,2.81541c1.70469,-1.61283 6.18677,0.90468 4.3992,3.36576c-0.70274,0.9675 -1.49549,0.84855 -2.259,0.46179c-0.10752,0.58202 -0.7696,0.94403 -1.02663,1.48649c-0.36339,0.76694 1.98263,0.72934 2.21731,0.73096c0.28738,0.00198 0.56138,-0.12333 0.84208,-0.185l0.99363,-0.19872c0.26879,-0.05785 0.56053,0.01768 0.76941,0.22655c0.21431,0.21431 0.28823,0.51585 0.22177,0.79034c0.24816,0.06033 0.62742,0.24473 0.62742,0.80842zM285.50772,176.25784c0.38424,0.44294 0.95071,1.13406 1.3732,1.29309c0.34997,0.13173 -0.56691,-1.3847 -1.00637,-1.34362c-0.12131,0.01133 -0.25235,0.02759 -0.36683,0.05053z" fill="#ffcb00" stroke="none" stroke-width="0.5"/><path d="M241.12539,232.50689c0.10403,0.1636 0.1568,0.38942 0.05593,0.69204c-0.26492,0.79476 -1.05967,0.52984 -1.05967,0.52984l-0.93128,-1.5884c0.81066,-0.78666 1.2743,-1.81182 1.9255,-2.7153c0.19974,-0.27713 1.11667,-0.74761 0.78766,-0.65566c-0.31395,0.08774 -0.66457,0.24271 -1.01086,0.3746c-0.20575,0.26461 -0.50912,0.49889 -0.91591,0.90569l-0.2509,-0.01665l0.0199,0.09951l-0.99363,0.19872c-0.26879,0.05785 -0.56053,-0.01768 -0.76941,-0.22655c-0.32716,-0.32716 -0.32716,-0.85759 0,-1.18475l0.60382,-0.60382l0.25723,0.25723c0.20427,-0.21379 0.42884,-0.42682 0.66673,-0.6257c0.0149,-0.17391 -0.02336,-0.34605 -0.07896,-0.52311c-1.37039,0.4777 -3.05952,0.36712 -3.86411,-0.54023c-0.94784,-1.06891 -0.64807,-1.99145 0.03098,-2.82544c-0.04654,-0.10281 -0.07507,-0.22889 -0.07507,-0.3835c0,-0.83775 0.83774,-0.83774 0.83774,-0.83774c0.12597,0.0003 0.2823,0.00052 0.46112,0.00297c0.40549,-0.36623 0.79583,-0.71872 1.07328,-1.06398c0.27752,-0.34533 0.33312,-0.97653 0.76157,-1.08924c0.60996,-0.16046 1.23255,0.26836 1.84883,0.40254c1.35988,0.69353 5.52338,3.68524 3.06658,5.35075c-0.34431,0.23342 -1.74898,-0.35946 -2.43161,-0.20821c-0.10015,0.14484 -0.21887,0.28024 -0.35283,0.40563c0.00874,0.13614 0.06997,0.28916 0.14356,0.43274c0.86887,-0.32958 1.74124,-0.23363 2.36604,0.76916c0.66716,1.07079 -1.01172,3.33077 -2.17224,4.66689zM241.42064,224.56125c0.35473,-0.00598 0.7038,0.0464 1.00221,0.15728c-0.23538,-0.14973 -0.4945,-0.32935 -0.61592,-0.45076c-0.63519,-0.63519 -1.12789,-1.23517 -1.94223,-1.62987c-0.18882,-0.13418 -0.33906,-0.44669 -0.56646,-0.40255c-0.30286,0.05879 -0.38102,0.4134 -0.48927,0.74825c1.12528,0.16892 2.23008,0.53497 2.53144,1.3301c0.03174,0.08375 0.05841,0.16628 0.08024,0.24755zM237.36055,224.49487c-0.38643,0.35046 -0.71937,0.71255 -0.76555,0.99199c-0.08121,0.49152 1.89781,0.49524 2.75388,0.17554c0.04601,-0.09079 0.10236,-0.18453 0.17064,-0.2815c0.04785,-0.06796 0.10219,-0.13171 0.16215,-0.19124c-0.1123,-0.15319 -0.41261,-0.328 -0.97591,-0.5206c-0.2626,-0.08978 -0.54013,-0.1416 -0.81705,-0.16001c-0.17584,-0.01169 -0.35194,-0.01496 -0.52817,-0.01419z" fill="#ffcb00" stroke="none" stroke-width="0.5"/></g></g></svg>