<svg version="1.1" xmlns="http://www.w3.org/2000/svg" xmlns:xlink="http://www.w3.org/1999/xlink" width="20.25782" height="19.06614" viewBox="0,0,20.25782,19.06614"><g transform="translate(-229.87109,-170.46693)"><g data-paper-data="{&quot;isPaintingLayer&quot;:true}" fill-rule="nonzero" stroke="none" stroke-width="0" stroke-linecap="butt" stroke-linejoin="miter" stroke-miterlimit="10" stroke-dasharray="" stroke-dashoffset="0" style="mix-blend-mode: normal"><path d="M250.12891,180c0,5.26497 -4.53488,9.53307 -10.12891,9.53307c-5.59402,0 -10.12891,-4.2681 -10.12891,-9.53307c0,-5.26497 4.53488,-9.53307 10.12891,-9.53307c5.59402,0 10.12891,4.2681 10.12891,9.53307z" fill="#000000"/><path d="M235.4375,178.1875c0,-0.82843 0.67157,-1.5 1.5,-1.5c0.82843,0 1.5,0.67157 1.5,1.5c0,0.82843 -0.67157,1.5 -1.5,1.5c-0.82843,0 -1.5,-0.67157 -1.5,-1.5z" fill="#ffffff"/><path d="M242.9375,178.75c0,-0.79391 0.64359,-1.4375 1.4375,-1.4375c0.79391,0 1.4375,0.64359 1.4375,1.4375c0,0.79391 -0.64359,1.4375 -1.4375,1.4375c-0.79391,0 -1.4375,-0.64359 -1.4375,-1.4375z" fill="#ffffff"/><path d="M237.1875,185.35227c0,-0.50521 1.37673,-0.91477 3.075,-0.91477c1.69827,0 3.075,0.40956 3.075,0.91477c0,0.50521 -1.37673,0.91477 -3.075,0.91477c-1.69827,0 -3.075,-0.40956 -3.075,-0.91477z" fill="#ffffff"/></g></g></svg>