<svg version="1.1" xmlns="http://www.w3.org/2000/svg" xmlns:xlink="http://www.w3.org/1999/xlink" width="61.08695" height="62.38701" viewBox="0,0,61.08695,62.38701"><g transform="translate(-209.43777,-148.8063)"><g data-paper-data="{&quot;isPaintingLayer&quot;:true}" fill-rule="nonzero" stroke-linecap="butt" stroke-linejoin="miter" stroke-miterlimit="10" stroke-dasharray="" stroke-dashoffset="0" style="mix-blend-mode: normal"><path d="M253.68989,179.56588c0,6.97269 -6.00579,12.62517 -13.41427,12.62517c-7.40847,0 -13.41427,-5.65248 -13.41427,-12.62517c0,-6.97269 6.00579,-12.62517 13.41427,-12.62517c7.40847,0 13.41427,5.65248 13.41427,12.62517z" fill="#ff0000" stroke="none" stroke-width="0"/><path d="M234.23324,177.16548c0,-1.09714 0.8894,-1.98653 1.98653,-1.98653c1.09714,0 1.98653,0.8894 1.98653,1.98653c0,1.09714 -0.8894,1.98653 -1.98653,1.98653c-1.09714,0 -1.98653,-0.8894 -1.98653,-1.98653z" fill="#000000" stroke="none" stroke-width="0"/><path d="M244.16591,177.91043c0,-1.05142 0.85234,-1.90376 1.90376,-1.90376c1.05142,0 1.90376,0.85234 1.90376,1.90376c0,1.05142 -0.85234,1.90376 -1.90376,1.90376c-1.05142,0 -1.90376,-0.85234 -1.90376,-1.90376z" fill="#000000" stroke="none" stroke-width="0"/><path d="M236.55086,186.65418c0,-0.66908 1.82328,-1.21148 4.07239,-1.21148c2.24911,0 4.07239,0.5424 4.07239,1.21148c0,0.66908 -1.82328,1.21148 -4.07239,1.21148c-2.24911,0 -4.07239,-0.5424 -4.07239,-1.21148z" fill="#000000" stroke="none" stroke-width="0"/><path d="M242.14191,157.72097c0,4.64729 -0.71162,8.41467 -1.58944,8.41467c-0.87782,0 -1.58944,-3.76737 -1.58944,-8.41467c0,-4.64729 0.71162,-8.41467 1.58944,-8.41467c0.87782,0 1.58944,3.76737 1.58944,8.41467z" fill="#000000" stroke="#ffc500" stroke-width="1"/><path d="M219.04779,171.04507c3.91316,2.50689 6.70154,5.13832 6.22801,5.87747c-0.47352,0.73915 -4.02963,-0.69388 -7.94279,-3.20076c-3.91316,-2.50689 -6.70154,-5.13832 -6.22802,-5.87748c0.47352,-0.73915 4.02964,0.69388 7.9428,3.20077z" fill="#000000" stroke="#edff00" stroke-width="1"/><path d="M263.32719,174.61378c-4.10902,2.17101 -7.77247,3.30176 -8.18255,2.52561c-0.41008,-0.77615 2.5885,-3.16529 6.69752,-5.3363c4.10902,-2.17101 7.77248,-3.30176 8.18256,-2.52562c0.41008,0.77615 -2.58851,3.16529 -6.69753,5.3363z" fill="#000000" stroke="#0090ff" stroke-width="1"/><path d="M229.44669,199.69451c-2.31293,4.03084 -4.80515,6.94431 -5.56653,6.50743c-0.76138,-0.43689 0.49639,-4.0587 2.80932,-8.08953c2.31293,-4.03084 4.80515,-6.94432 5.56653,-6.50743c0.76138,0.43689 -0.4964,4.0587 -2.80932,8.08954z" fill="#000000" stroke="#ff0000" stroke-width="1"/><path d="M252.80514,198.75717c1.74645,4.30665 2.50277,8.0653 1.68929,8.39519c-0.81348,0.32988 -2.88871,-2.89392 -4.63516,-7.20057c-1.74645,-4.30665 -2.50277,-8.06531 -1.68929,-8.39519c0.81348,-0.32988 2.88871,2.89393 4.63516,7.20057z" fill="#000000" stroke="#8cff00" stroke-width="1"/><path d="M230.5751,160.03526c2.51244,3.9096 3.95051,7.46367 3.21203,7.93824c-0.73848,0.47457 -3.37387,-2.31007 -5.88631,-6.21967c-2.51244,-3.9096 -3.95051,-7.46368 -3.21203,-7.93825c0.73848,-0.47457 3.37387,2.31007 5.88631,6.21967z" fill="#000000" stroke="#a500ff" stroke-width="1"/><path d="M218.35018,183.72958c4.64728,-0.00659 8.41566,0.69967 8.41691,1.5775c0.00125,0.87782 -3.76511,1.59478 -8.4124,1.60138c-4.64728,0.00659 -8.41567,-0.69968 -8.41692,-1.5775c-0.00125,-0.87782 3.76512,-1.59478 8.41241,-1.60138z" fill="#000000" stroke="#00fff3" stroke-width="1"/><path d="M257.53017,162.79331c-2.28307,4.04783 -4.75368,6.97964 -5.51828,6.54839c-0.76459,-0.43125 0.46639,-4.06225 2.74946,-8.11008c2.28307,-4.04783 4.75369,-6.97965 5.51828,-6.5484c0.76459,0.43125 -0.46639,4.06226 -2.74946,8.11008z" fill="#000000" stroke="#ff6f00" stroke-width="1"/><path d="M242.58696,202.20944c0.23339,4.64143 -0.28813,8.43978 -1.16484,8.48387c-0.87671,0.04408 -1.77663,-3.6828 -2.01002,-8.32423c-0.23339,-4.64143 0.28814,-8.43979 1.16485,-8.48387c0.87671,-0.04408 1.77662,3.6828 2.01001,8.32423z" fill="#000000" stroke="#ffffff" stroke-width="1"/><path d="M261.73085,188.79275c3.7975,2.67886 6.46578,5.432 5.95978,6.1493c-0.50601,0.71731 -3.9947,-0.87285 -7.79219,-3.55171c-3.7975,-2.67886 -6.46578,-5.432 -5.95978,-6.1493c0.50601,-0.71731 3.9947,0.87285 7.79219,3.55171z" fill="#000000" stroke="#a69700" stroke-width="1"/></g></g></svg>