<svg version="1.1" xmlns="http://www.w3.org/2000/svg" xmlns:xlink="http://www.w3.org/1999/xlink" width="77.0839" height="110.21066" viewBox="0,0,77.0839,110.21066"><g transform="translate(-201.45805,-124.89467)"><g data-paper-data="{&quot;isPaintingLayer&quot;:true}" fill-rule="nonzero" stroke-linejoin="miter" stroke-miterlimit="10" stroke-dasharray="" stroke-dashoffset="0" style="mix-blend-mode: normal"><path d="M248.96268,209.11325l-18.80563,-83.39969" fill="none" stroke="#ffd306" stroke-width="1.5" stroke-linecap="round"/><path d="M248.76582,211.71137l-22.80429,-82.39614" fill="none" stroke="#ffd306" stroke-width="1.5" stroke-linecap="round"/><path d="M245.83315,137.60021l-20.61927,96.34265" fill="none" stroke="#ffd306" stroke-width="1.5" stroke-linecap="round"/><path d="M247.57379,133.21209l-20.10049,96.45222" fill="none" stroke="#ffd306" stroke-width="1.5" stroke-linecap="round"/><path d="M242.58451,225.15551l-2.67792,-85.45167" fill="none" stroke="#ffd306" stroke-width="1.5" stroke-linecap="round"/><path d="M236.97192,127.31403l15.32664,102.43037" fill="none" stroke="#ffd306" stroke-width="1.5" stroke-linecap="round"/><path d="M242.00424,137.18774l-16.2948,97.16759" fill="none" stroke="#ffd306" stroke-width="1.5" stroke-linecap="round"/><path d="M244.96805,133.36947l-21.55571,96.13746" fill="none" stroke="#ffd306" stroke-width="1.5" stroke-linecap="round"/><path d="M203.05414,154.99813l67.68707,19.20857" fill="none" stroke="#ffd306" stroke-width="1.5" stroke-linecap="round"/><path d="M208.97675,168.96801l62.32851,-6.40286" fill="none" stroke="#ffd306" stroke-width="1.5" stroke-linecap="round"/><path d="M277.79195,170.71426l-72.19953,-6.98495" fill="none" stroke="#ffd306" stroke-width="1.5" stroke-linecap="round"/><path d="M202.20805,177.11711l67.40504,-17.46235" fill="none" stroke="#ffd306" stroke-width="1.5" stroke-linecap="round"/><path d="M276.09976,166.05763l-72.19953,3.49248" fill="none" stroke="#ffd306" stroke-width="1.5" stroke-linecap="round"/><path d="M221.19674,172.67996l0.18171,-12.75104" fill="none" stroke="#ff0505" stroke-width="1.5" stroke-linecap="round"/><path d="M257.17541,170.42979v-8.25068" fill="none" stroke="#ff0505" stroke-width="1.5" stroke-linecap="round"/><path d="M222.52847,131.99347l36.69988,95.23202" fill="none" stroke="#ffd306" stroke-width="1.5" stroke-linecap="round"/><path d="M252.0323,133.86077l-35.26066,93.73818" fill="none" stroke="#ffd306" stroke-width="1.5" stroke-linecap="round"/><path d="M236.92059,125.64467l-5.75684,96.3524" fill="none" stroke="#ffd306" stroke-width="1.5" stroke-linecap="round"/><path d="M235.48135,224.98474l-1.4392,-91.87089l7.91565,81.7875" fill="none" stroke="#ffd306" stroke-width="1.5" stroke-linecap="round"/><path d="M244.83623,138.34228l-26.62539,94.85858" fill="none" stroke="#ffd306" stroke-width="1.5" stroke-linecap="round"/><path d="M244.11663,127.13851l5.03725,103.44812" fill="none" stroke="#ffd306" stroke-width="1.5" stroke-linecap="round"/><path d="M247.14759,228.36062l-7.13737,-85.19517" fill="none" stroke="#ffd306" stroke-width="1.5" stroke-linecap="round"/><path d="M235.2302,208.99167l-12.05462,-0.72186" fill="none" stroke="#ff0505" stroke-width="1.5" stroke-linecap="round"/><path d="M252.84847,208.75105l-11.59095,0.48123" fill="none" stroke="#ff0505" stroke-width="1.5" stroke-linecap="round"/><path d="M226.8554,142.19778l22.92901,-0.42079" fill="none" stroke="#ff0505" stroke-width="1.5" stroke-linecap="round"/><path d="M233.01651,145.30731c0,-0.86317 0.69974,-1.56291 1.56291,-1.56291c0.86317,0 1.56291,0.69974 1.56291,1.56291c0,0.86317 -0.69974,1.56291 -1.56291,1.56291c-0.86317,0 -1.56291,-0.69974 -1.56291,-1.56291z" fill="#000000" stroke="none" stroke-width="0.5" stroke-linecap="butt"/><path d="M242.39637,146.61553c0,-0.86317 0.69974,-1.56291 1.56291,-1.56291c0.86317,0 1.56291,0.69974 1.56291,1.56291c0,0.86317 -0.69974,1.56291 -1.56291,1.56291c-0.86317,0 -1.56291,-0.69974 -1.56291,-1.56291z" fill="#000000" stroke="none" stroke-width="0.5" stroke-linecap="butt"/><path d="M239.92425,159.23644c-1.39791,-0.69895 -0.69895,-2.09688 -0.69895,-2.09688l0.26647,-0.16399c0,-0.83727 0.55239,-1.68244 0.33102,-2.48993c-0.13251,-0.48333 -1.02282,0.13583 -1.44981,0.39822c-0.81259,0.49932 -1.15721,1.59169 -1.52949,2.35919c0,0 -0.69897,1.39792 -2.09688,0.69895c-1.39791,-0.69895 -0.69895,-2.09687 -0.69895,-2.09687c1.27102,-2.48427 5.10626,-6.82685 8.23894,-3.28319c0.40134,0.45399 0.33102,3.57255 0.33102,4.4136l-0.59647,1.56191c0,0 -0.69896,1.39792 -2.09687,0.69895z" fill="#000000" stroke="none" stroke-width="0.5" stroke-linecap="butt"/><path d="M233.4044,162.7386l12.49806,-0.29757" fill="none" stroke="#ff0505" stroke-width="1.5" stroke-linecap="round"/><path d="M233.70198,171.36822h12.49806" fill="none" stroke="#ff0505" stroke-width="1.5" stroke-linecap="round"/></g></g></svg>