<svg version="1.1" xmlns="http://www.w3.org/2000/svg" xmlns:xlink="http://www.w3.org/1999/xlink" width="42.11928" height="42.11928" viewBox="0,0,42.11928,42.11928"><g transform="translate(-218.94036,-158.94036)"><g data-paper-data="{&quot;isPaintingLayer&quot;:true}" fill-rule="nonzero" stroke-linecap="butt" stroke-linejoin="miter" stroke-miterlimit="10" stroke-dasharray="" stroke-dashoffset="0" style="mix-blend-mode: normal"><path d="M222.6445,180c0,-9.58518 7.77033,-17.35552 17.3555,-17.35552c9.58518,0 17.35552,7.77033 17.35552,17.35552c0,9.58518 -7.77033,17.3555 -17.35552,17.3555c-9.58518,0 -17.3555,-7.77033 -17.3555,-17.3555z" fill="#797979" stroke="none" stroke-width="0"/><path d="M219.69036,180c0,-11.21671 9.09294,-20.30964 20.30964,-20.30964c11.21671,0 20.30964,9.09294 20.30964,20.30964c0,11.21671 -9.09294,20.30964 -20.30964,20.30964c-11.21671,0 -20.30964,-9.09294 -20.30964,-20.30964z" fill="none" stroke="#80ffff" stroke-width="1.5"/><path d="M253.87032,169.6958c0,0.9085 -0.53825,1.27875 -0.97696,1.42962c-1.82064,3.06176 -4.07639,3.75146 -7.69852,4.14809c-1.48842,0.16298 -2.85192,0.53025 -4.2916,0.71196c0.00094,0.06495 0.00146,0.12935 0.00146,0.19313c0,1.19937 -0.34488,3.07937 0.25634,4.2031c0.29793,0.55684 0.66097,1.08787 1.03227,1.61904c0.23801,-0.06238 0.41939,-0.06238 0.41939,-0.06238c4.21373,0 8.63588,-0.90583 12.43587,0.97224l-0.28059,-0.16189c0,0 1.43902,0 1.52902,1.39402c0.4847,0.25763 0.81476,0.76773 0.81476,1.35493c0,0.84688 -0.68653,1.53342 -1.53342,1.53342c-0.77469,0 -1.4152,-0.57447 -1.51877,-1.32066l-0.38252,-0.05676c-2.80688,-1.42302 -6.45227,-0.8422 -9.74896,-0.68363c0.06834,0.18887 0.1279,0.38212 0.17702,0.5805c0.91087,3.6793 -1.60768,6.58407 -1.57969,10.07654v0.40518c0,0 0,1.53342 -1.53342,1.53342c-1.53342,0 -1.53342,-1.53342 -1.53342,-1.53342v-0.40518c0.01116,-1.75693 -0.12885,-2.03662 0.50042,-3.77342c0.64913,-1.79161 1.67823,-3.56121 1.1613,-5.5985c-0.31842,-1.25496 -1.04324,-2.2522 -1.73511,-3.2695c-1.18806,2.7796 -2.17234,5.59551 -4.38458,7.80775l-1.83154,0.93791c0,0 -0.22855,0.11427 -0.54569,0.15623c-0.11729,0.22117 -0.28713,0.41021 -0.49288,0.55048c-0.06444,0.09453 -0.13918,0.18147 -0.2226,0.25922c0.05375,0.15637 0.08294,0.32416 0.08294,0.49877c0,0.84688 -0.68653,1.53342 -1.53342,1.53342c-0.84688,0 -1.53342,-0.68653 -1.53342,-1.53342c0,-0.44293 0.1878,-0.84201 0.48812,-1.12194c-0.05375,-0.15637 -0.08294,-0.32416 -0.08294,-0.49877c0,-0.52698 0.26582,-0.99187 0.67071,-1.2679c0.24672,-0.36188 0.64431,-0.61269 1.10228,-0.66187c0.25719,-0.43821 0.69538,-0.65731 0.69538,-0.65731l1.40986,-0.6828c1.32001,-1.32001 1.14839,-2.27319 1.94308,-3.87198c0.30058,-0.60471 0.91199,-1.01747 1.21553,-1.62071c0.52312,-1.03962 0.71293,-2.22481 1.22858,-3.26815c0,0 0.02823,-0.05645 0.08468,-0.14072c-1.63465,0.44987 -3.46948,1.11929 -5.1431,0.69818c-2.33721,-0.58807 -2.67961,-2.31637 -4.45497,-3.39942c-0.52836,-0.32232 -2.01737,-0.2099 -2.4859,-0.20614h-0.40518c0,0 -1.53342,0 -1.53342,-1.53342c0,-0.07685 0.00384,-0.14984 0.01117,-0.21917c-0.00738,-0.06097 -0.01117,-0.12304 -0.01117,-0.186c0,-0.84688 0.68653,-1.53342 1.53342,-1.53342c0.39908,0 0.76255,0.15246 1.03536,0.40229c1.16735,-0.01191 2.22431,-0.02281 3.36674,0.60709c1.40425,0.77426 1.99153,2.67449 3.64856,3.08339c1.21237,0.29918 2.9995,-0.52099 4.1379,-0.80559c0,0 0.0802,-0.02005 0.20801,-0.03222c-0.04411,-2.09354 0.13842,-4.32479 0.75161,-5.90015c0.77469,-1.9903 1.87886,-3.44807 2.38159,-5.51236c0,0 0.09555,-0.38218 0.38349,-0.71068c0.12847,-0.71702 0.75534,-1.26118 1.50932,-1.26118c0.84688,0 1.53342,0.68653 1.53342,1.53342c0,0.41332 -0.16353,0.78845 -0.42941,1.06421c-0.01062,0.07433 -0.02155,0.11805 -0.02155,0.11805c-0.55499,2.17389 -1.62752,3.77109 -2.48052,5.83257c-0.19025,0.45978 -0.29007,0.96058 -0.33798,1.47798c1.3422,-0.17874 2.61338,-0.54174 4.016,-0.69971c2.82666,-0.31835 4.32538,-0.44017 5.66756,-3.21157l1.77671,-0.84765c0,0 1.53342,0 1.53342,1.53342z" fill="#80ffff" stroke="none" stroke-width="0.5"/></g></g></svg>